<svg xmlns="http://www.w3.org/2000/svg" viewBox="0 0 31.78 37.44"><defs><style>.cls-1{fill:#fff;}</style></defs><g id="Layer_2" data-name="Layer 2"><g id="Layer_1-2" data-name="Layer 1"><path class="cls-1" d="M29.17,24.26a1.89,1.89,0,0,1-2.54,1.36l-4-.81a2.47,2.47,0,0,1-1.58-1.09q-.64-1-1.32-1.89c-.4-.57-.81-.62-1.33-.14-.68.64-1.36,1.28-2,1.94s-.49.91.11,1.37c1.22.93,2.44,1.86,3.68,2.77a2.06,2.06,0,0,1,.91,1.79c0,2,0,4,0,5.95a1.8,1.8,0,0,1-1.78,1.93,1.85,1.85,0,0,1-1.8-2c.08-1.32,0-2.64,0-4a2.3,2.3,0,0,0-1-2c-1.09-.78-2.15-1.6-3.23-2.4-.6-.43-.92-.33-1.1.37-.35,1.34-.68,2.68-1,4a1.79,1.79,0,0,1-1.89,1.47H2.41a1.8,1.8,0,1,1,0-3.58c1.69,0,3.37,0,5.06,0,.39,0,.54-.11.61-.51.29-1.62.64-3.22,1-4.82A3.48,3.48,0,0,1,10,22.26l4.58-4.72c.15-.16.41-.3.3-.58s-.38-.22-.61-.24a6.32,6.32,0,0,0-3.91.9c-.91.55-1.87,1-2.81,1.52a1.65,1.65,0,0,1-2.42-.59A1.82,1.82,0,0,1,5.87,16q2.3-1.26,4.62-2.47a3.92,3.92,0,0,1,1.85-.41H18.1a1.86,1.86,0,0,1,1.77,1c1.2,2.11,2.43,4.2,3.63,6.31a2.4,2.4,0,0,0,1.71,1.21c.71.13,1.41.29,2.13.4a2.06,2.06,0,0,1,1.83,1.53Z"/><path class="cls-1" d="M28.16,13.91a3.27,3.27,0,0,1-1.7,3,2.73,2.73,0,0,1-2.91-.09A3.53,3.53,0,0,1,22,13.22a3.32,3.32,0,0,1,2.55-2.72,3.17,3.17,0,0,1,3.58,3C28.17,13.61,28.16,13.76,28.16,13.91Z"/><path class="cls-1" d="M31.78,3.68,22.78,0,24.1,2.26H1.41a1.42,1.42,0,0,0,0,2.83H24.1L22.78,7.35Z"/></g></g></svg>