<svg xmlns="http://www.w3.org/2000/svg" xmlns:xlink="http://www.w3.org/1999/xlink" viewBox="0 0 158.26 40.24"><defs><style>.cls-1{fill:url(#linear-gradient);}.cls-2{fill:#fff;}.cls-3{fill:none;stroke:#29abe2;stroke-linecap:round;stroke-miterlimit:10;stroke-width:3.13px;}.cls-4{fill:#29abe2;}</style><linearGradient id="linear-gradient" y1="20.12" x2="172.2" y2="20.12" gradientUnits="userSpaceOnUse"><stop offset="0" stop-color="#29abe2"/><stop offset="0.15" stop-color="#29a5de"/><stop offset="0.35" stop-color="#2a95d3"/><stop offset="0.57" stop-color="#2b79c1"/><stop offset="0.81" stop-color="#2d54a9"/><stop offset="1" stop-color="#2e3192"/></linearGradient></defs><g id="Layer_2" data-name="Layer 2"><g id="Layer_1-2" data-name="Layer 1"><rect class="cls-1" width="158.26" height="40.24" rx="20.12"/><circle class="cls-2" cx="20.12" cy="20.12" r="20.12"/><path class="cls-2" d="M55.72,19a3.59,3.59,0,0,1,.88,2.35,3.49,3.49,0,0,1-1,2.5,3.22,3.22,0,0,1-2.41,1H49.23q-1,0-1.23-.57a2.39,2.39,0,0,1-.09-.77v-8.3c0-.24,0-.42,0-.53a1.19,1.19,0,0,1,.14-.38c.14-.27.53-.41,1.17-.41H53a3.06,3.06,0,0,1,2.3,1A3.25,3.25,0,0,1,55.72,19ZM54,21.16a1.73,1.73,0,0,0-.08-.57.55.55,0,0,0-.28-.3,2.34,2.34,0,0,0-.84-.12A1.29,1.29,0,0,1,52,20a1,1,0,0,1-.27-.86,1.06,1.06,0,0,1,.27-.86,1.56,1.56,0,0,1,.92-.21c.4,0,.64-.1.72-.31a2.22,2.22,0,0,0,0-.54.57.57,0,0,0-.25-.52,1.44,1.44,0,0,0-.74-.15H50.56v5.67H53C53.64,22.18,54,21.84,54,21.16Z"/><path class="cls-2" d="M62.68,17.79c.06-.55.46-.83,1.18-.83a3.11,3.11,0,0,1,.87.09.64.64,0,0,1,.4.31,1.23,1.23,0,0,1,.13.4,3.13,3.13,0,0,1,0,.51v5.24a3.13,3.13,0,0,1,0,.51,1.19,1.19,0,0,1-.12.4c-.14.26-.49.39-1,.39a2.06,2.06,0,0,1-1.09-.2A.85.85,0,0,1,62.7,24a2.12,2.12,0,0,1-1.85.79,3.29,3.29,0,0,1-2.4-1.18,3.9,3.9,0,0,1-1.1-2.75,3.84,3.84,0,0,1,1.11-2.73A3.31,3.31,0,0,1,60.9,17a2.34,2.34,0,0,1,.93.18,1.91,1.91,0,0,1,.58.34A1.83,1.83,0,0,1,62.68,17.79ZM60,20.9a1.23,1.23,0,0,0,.39.89,1.25,1.25,0,0,0,.94.4,1.18,1.18,0,0,0,.92-.4,1.28,1.28,0,0,0,.37-.89,1.4,1.4,0,0,0-.35-.91,1.17,1.17,0,0,0-.94-.42,1.2,1.2,0,0,0-1,.42A1.35,1.35,0,0,0,60,20.9Z"/><path class="cls-2" d="M66.54,24.13a.59.59,0,0,1-.28-.56,2.48,2.48,0,0,1,.57-1.19.6.6,0,0,1,.53-.25,2.14,2.14,0,0,1,1,.37,2.35,2.35,0,0,0,1.14.36c.61,0,.91-.12.91-.36s-.33-.32-1-.41a4.9,4.9,0,0,1-1.87-.71,2,2,0,0,1-.72-.84,3.07,3.07,0,0,1-.28-1.37c0-1.58,1.08-2.36,3.24-2.36a5.21,5.21,0,0,1,2.18.51c.35.16.53.35.53.59a1.78,1.78,0,0,1-.33.89c-.22.35-.44.52-.67.52a2.22,2.22,0,0,1-.67-.22,2.45,2.45,0,0,0-1-.23c-.59,0-.89.11-.89.33s.34.49,1,.58a5.58,5.58,0,0,1,1.92.57,1.69,1.69,0,0,1,.72.73,2.51,2.51,0,0,1,.29,1.29,2.68,2.68,0,0,1-.29,1.32,1.89,1.89,0,0,1-.81.82,5.49,5.49,0,0,1-2.4.46A5.13,5.13,0,0,1,66.54,24.13Z"/><path class="cls-2" d="M76.25,15.5a.63.63,0,0,1-.39.31,2.58,2.58,0,0,1-.76.09,2.56,2.56,0,0,1-.75-.09.65.65,0,0,1-.4-.32,1.23,1.23,0,0,1-.13-.4,3.13,3.13,0,0,1,0-.51,3.36,3.36,0,0,1,0-.52,1.1,1.1,0,0,1,.12-.38c.14-.27.53-.4,1.17-.4s1,.13,1.14.4a1.28,1.28,0,0,1,.14.4c0,.11,0,.28,0,.51s0,.41,0,.52A1.33,1.33,0,0,1,76.25,15.5Zm-2.46,2.77a3.13,3.13,0,0,1,0-.51,1.19,1.19,0,0,1,.12-.4q.21-.39,1.17-.39a1.58,1.58,0,0,1,1,.26.82.82,0,0,1,.27.64c0,.1,0,.24,0,.43v5.24c0,.23,0,.4,0,.51a1.28,1.28,0,0,1-.14.4c-.13.26-.52.39-1.15.39s-1-.14-1.16-.41a1.24,1.24,0,0,1-.12-.38,3.33,3.33,0,0,1,0-.53Z"/><path class="cls-2" d="M80.07,20.9a1.2,1.2,0,0,0,.42,1,1.36,1.36,0,0,0,.89.36,1.61,1.61,0,0,0,.89-.28,1.25,1.25,0,0,1,.66-.28c.3,0,.66.27,1.09.79a1.33,1.33,0,0,1,.35.78c0,.38-.28.74-.83,1.06a3.51,3.51,0,0,1-2.09.6,4.3,4.3,0,0,1-2.68-1,3.51,3.51,0,0,1-1-1.28,4,4,0,0,1-.39-1.76,3.85,3.85,0,0,1,.39-1.75,3.56,3.56,0,0,1,1-1.27,4.23,4.23,0,0,1,2.65-1,4.13,4.13,0,0,1,1.11.15,3.9,3.9,0,0,1,.79.31l.24.15.42.28a.86.86,0,0,1,.39.69,1.58,1.58,0,0,1-.32.85c-.36.55-.7.83-1,.83a1.74,1.74,0,0,1-.81-.33,1.07,1.07,0,0,0-.77-.26,1.43,1.43,0,0,0-.93.36A1.23,1.23,0,0,0,80.07,20.9Z"/><path class="cls-2" d="M89.18,24.13a.59.59,0,0,1-.28-.56,2.48,2.48,0,0,1,.57-1.19.6.6,0,0,1,.53-.25,2.14,2.14,0,0,1,1,.37,2.35,2.35,0,0,0,1.14.36c.61,0,.91-.12.91-.36s-.33-.32-1-.41a4.9,4.9,0,0,1-1.87-.71,2,2,0,0,1-.72-.84,3.07,3.07,0,0,1-.28-1.37c0-1.58,1.08-2.36,3.24-2.36a5.29,5.29,0,0,1,2.19.51c.34.16.52.35.52.59a1.78,1.78,0,0,1-.33.89c-.22.35-.44.52-.67.52a2.31,2.31,0,0,1-.67-.22,2.45,2.45,0,0,0-1-.23c-.59,0-.88.11-.88.33s.33.49,1,.58a5.58,5.58,0,0,1,1.92.57,1.64,1.64,0,0,1,.72.73,2.51,2.51,0,0,1,.29,1.29,2.68,2.68,0,0,1-.29,1.32,1.89,1.89,0,0,1-.81.82A5.49,5.49,0,0,1,92,25,5.13,5.13,0,0,1,89.18,24.13Z"/><path class="cls-2" d="M97.47,17.94a4.11,4.11,0,0,1,2.87-1.16,4,4,0,0,1,2.85,1.16,3.85,3.85,0,0,1,1.25,2.95,3.9,3.9,0,0,1-.65,2.21,4.13,4.13,0,0,1-1.56,1.42,4.29,4.29,0,0,1-1.91.45,4.1,4.1,0,0,1-1.91-.48,4.28,4.28,0,0,1-1.56-1.44,3.73,3.73,0,0,1-.64-2.15A3.87,3.87,0,0,1,97.47,17.94Zm1.87,4a1.53,1.53,0,0,0,1,.37,1.58,1.58,0,0,0,1-.37,1.31,1.31,0,0,0,.5-1.11,1.29,1.29,0,0,0-.47-1.09,1.58,1.58,0,0,0-1-.36,1.55,1.55,0,0,0-1,.37,1.33,1.33,0,0,0-.46,1.1A1.27,1.27,0,0,0,99.34,22Z"/><path class="cls-2" d="M110.76,17.05a1,1,0,0,1,.47.3,1,1,0,0,1,.19.7,2.38,2.38,0,0,1-.29,1.05.89.89,0,0,1-.82.56,1.13,1.13,0,0,1-.51-.12,1.54,1.54,0,0,0-.65-.12,1.19,1.19,0,0,0-.76.29.84.84,0,0,0-.35.69v3.14c0,.23,0,.4,0,.51a1.33,1.33,0,0,1-.15.4c-.15.26-.53.39-1.16.39a1.64,1.64,0,0,1-1-.26.89.89,0,0,1-.27-.64V18.26a3.64,3.64,0,0,1,0-.52,1.14,1.14,0,0,1,.13-.38c.13-.27.52-.4,1.16-.4s1,.11,1.12.34a.86.86,0,0,1,.17.49,2.06,2.06,0,0,1,.22-.25,2.59,2.59,0,0,1,.6-.4,1.76,1.76,0,0,1,.82-.26,3.34,3.34,0,0,1,.59,0A3,3,0,0,1,110.76,17.05Z"/><path class="cls-2" d="M116.82,19.6l-1-.06v2.07a1.06,1.06,0,0,0,.13.58.56.56,0,0,0,.48.18l.54,0a1.15,1.15,0,0,1,.39.14c.23.13.35.47.35,1s-.14,1-.42,1.15a1.54,1.54,0,0,1-.4.13l-.5,0a3.5,3.5,0,0,1-2.36-.71,3,3,0,0,1-.81-2.37V19.54a3.86,3.86,0,0,1-.61.05.71.71,0,0,1-.55-.26,1.33,1.33,0,0,1-.21-.86,3.79,3.79,0,0,1,.07-.89.79.79,0,0,1,.21-.4.92.92,0,0,1,.6-.19l.49.06V15.51c0-.23,0-.4,0-.51a1.07,1.07,0,0,1,.15-.36c.13-.25.51-.37,1.15-.37s1.08.18,1.21.55a2.81,2.81,0,0,1,.07.76v1.47c.44,0,.77-.06,1-.06a3.56,3.56,0,0,1,.51,0,1.09,1.09,0,0,1,.39.14c.26.13.39.51.39,1.15s-.13,1-.4,1.15a1.23,1.23,0,0,1-.4.13A3.41,3.41,0,0,1,116.82,19.6Z"/><line class="cls-3" x1="25.18" y1="10.6" x2="25.18" y2="25.53"/><polygon class="cls-4" points="25.18 31.93 21.5 22.91 25.18 25.05 28.86 22.91 25.18 31.93"/><line class="cls-3" x1="15.06" y1="29.64" x2="15.06" y2="14.71"/><polygon class="cls-4" points="15.06 8.31 18.75 17.33 15.06 15.19 11.38 17.33 15.06 8.31"/></g></g></svg>