<svg xmlns="http://www.w3.org/2000/svg" xmlns:xlink="http://www.w3.org/1999/xlink" viewBox="0 0 158.26 40.24"><defs><style>.cls-1{fill:url(#linear-gradient);}.cls-2{fill:#fff;}.cls-3{fill:lime;}</style><linearGradient id="linear-gradient" y1="20.12" x2="158.26" y2="20.12" gradientUnits="userSpaceOnUse"><stop offset="0" stop-color="lime"/><stop offset="0.1" stop-color="#03fa0f"/><stop offset="0.3" stop-color="#0aeb35"/><stop offset="0.57" stop-color="#15d572"/><stop offset="0.9" stop-color="#24b5c6"/><stop offset="1" stop-color="#29abe2"/></linearGradient></defs><g id="Layer_2" data-name="Layer 2"><g id="Layer_1-2" data-name="Layer 1"><rect class="cls-1" width="158.26" height="40.24" rx="20.12"/><circle class="cls-2" cx="20.12" cy="20.12" r="20.12"/><path class="cls-3" d="M31.59,14.15A7.1,7.1,0,0,0,20.8,23.32l-6.52,6.53a1.14,1.14,0,0,0,.81,1.95,1.17,1.17,0,0,0,.81-.33l6.52-6.53a7.1,7.1,0,0,0,9.17-10.79ZM30,22.57a4.8,4.8,0,1,1,1.41-3.4A4.76,4.76,0,0,1,30,22.57Z"/><path class="cls-3" d="M7.7,14.43c0-2.17.85-3.3,2.18-3.3s2.18,1.14,2.18,3.3-.85,3.36-2.18,3.36S7.7,16.6,7.7,14.43Zm3.25,0C11,12.62,10.5,12,9.88,12s-1.07.58-1.07,2.39.45,2.45,1.07,2.45S11,16.25,11,14.43Z"/><path class="cls-3" d="M13.21,16.72h1.43V12.51H13.46v-.73a4.41,4.41,0,0,0,1.48-.53h.87v5.47h1.26v1H13.21Z"/><path class="cls-3" d="M8,24.61H9.48V20.4H8.29v-.73a4.06,4.06,0,0,0,1.48-.53h.87v5.47H11.9v.95H8Z"/><path class="cls-3" d="M12.87,22.32c0-2.16.85-3.3,2.18-3.3s2.18,1.14,2.18,3.3-.85,3.36-2.18,3.36S12.87,24.49,12.87,22.32Zm3.25,0c0-1.81-.45-2.39-1.07-2.39S14,20.51,14,22.32s.45,2.45,1.07,2.45S16.12,24.14,16.12,22.32Z"/><path class="cls-2" d="M55.71,19a3.55,3.55,0,0,1,.89,2.35,3.51,3.51,0,0,1-1,2.5,3.27,3.27,0,0,1-2.41,1H49.22c-.69,0-1.1-.19-1.22-.57a2.51,2.51,0,0,1-.09-.78V15.18c0-.24,0-.42,0-.53a1.33,1.33,0,0,1,.14-.39c.14-.27.53-.4,1.17-.4H53a3.08,3.08,0,0,1,2.3,1,3.15,3.15,0,0,1,1,2.33A3.11,3.11,0,0,1,55.71,19ZM54,21.16a1.73,1.73,0,0,0-.08-.57.55.55,0,0,0-.28-.3,2.34,2.34,0,0,0-.84-.12A1.27,1.27,0,0,1,52,20a1.06,1.06,0,0,1-.27-.86,1.06,1.06,0,0,1,.27-.86,1.56,1.56,0,0,1,.92-.21c.4,0,.64-.1.72-.31a2.22,2.22,0,0,0,0-.54.57.57,0,0,0-.25-.52,1.46,1.46,0,0,0-.74-.15H50.56v5.66H53C53.64,22.17,54,21.84,54,21.16Z"/><path class="cls-2" d="M60,15.5a.66.66,0,0,1-.4.3,2.56,2.56,0,0,1-.75.09,2.58,2.58,0,0,1-.76-.09.6.6,0,0,1-.39-.31,1.28,1.28,0,0,1-.14-.4c0-.11,0-.28,0-.51s0-.4,0-.52a1.43,1.43,0,0,1,.13-.38c.14-.27.53-.4,1.16-.4s1,.13,1.14.4a1.07,1.07,0,0,1,.14.4,3.13,3.13,0,0,1,0,.51,3.36,3.36,0,0,1,0,.52A1.27,1.27,0,0,1,60,15.5Zm-2.46,2.77c0-.23,0-.4,0-.51a1.54,1.54,0,0,1,.13-.4c.14-.26.53-.39,1.16-.39a1.59,1.59,0,0,1,1,.25.84.84,0,0,1,.27.65,4.26,4.26,0,0,1,0,.43v5.23a3.27,3.27,0,0,1,0,.52,1.07,1.07,0,0,1-.14.4c-.13.26-.51.39-1.15.39s-1-.14-1.15-.41a1.61,1.61,0,0,1-.13-.39c0-.11,0-.28,0-.52Z"/><path class="cls-2" d="M65.76,17a3.17,3.17,0,0,1,2.49,1.15,4.07,4.07,0,0,1,1,2.79v2.63c0,.23,0,.4,0,.52a1.43,1.43,0,0,1-.13.38c-.14.27-.53.4-1.17.4s-1.11-.18-1.22-.55a2.48,2.48,0,0,1-.09-.77V20.87a1.24,1.24,0,0,0-.36-.95,1.27,1.27,0,0,0-.94-.35,1.33,1.33,0,0,0-1,.36,1.27,1.27,0,0,0-.36.94v2.65c0,.23,0,.4,0,.52a1.24,1.24,0,0,1-.15.38c-.13.27-.51.4-1.15.4s-1-.13-1.15-.4a1.54,1.54,0,0,1-.13-.4c0-.11,0-.29,0-.52V18.21c0-.22,0-.39,0-.5a1.24,1.24,0,0,1,.15-.38c.14-.25.52-.38,1.15-.38s1,.12,1.12.35a1.17,1.17,0,0,1,.15.61,1.53,1.53,0,0,1,.27-.3,2.55,2.55,0,0,1,.4-.31A2,2,0,0,1,65.76,17Z"/><path class="cls-2" d="M75.56,17.79c.06-.56.45-.84,1.18-.84a3.11,3.11,0,0,1,.87.09.61.61,0,0,1,.39.32,1.28,1.28,0,0,1,.14.4c0,.11,0,.28,0,.51V23.5c0,.23,0,.41,0,.52a1.54,1.54,0,0,1-.13.4q-.21.39-1,.39a2,2,0,0,1-1.1-.21.81.81,0,0,1-.32-.59,2.08,2.08,0,0,1-1.84.8,3.24,3.24,0,0,1-2.4-1.19,3.94,3.94,0,0,1,0-5.48A3.35,3.35,0,0,1,73.78,17a2.34,2.34,0,0,1,.93.18,2,2,0,0,1,.58.34A1.83,1.83,0,0,1,75.56,17.79ZM72.84,20.9a1.35,1.35,0,0,0,1.33,1.29,1.2,1.2,0,0,0,.92-.41,1.28,1.28,0,0,0,.36-.88A1.35,1.35,0,0,0,75.1,20a1.16,1.16,0,0,0-.94-.42,1.23,1.23,0,0,0-1,.42A1.37,1.37,0,0,0,72.84,20.9Z"/><path class="cls-2" d="M84.71,17a1,1,0,0,1,.47.31,1,1,0,0,1,.19.7,2.35,2.35,0,0,1-.29,1,.89.89,0,0,1-.82.57,1.13,1.13,0,0,1-.51-.12,1.54,1.54,0,0,0-.65-.12,1.19,1.19,0,0,0-.76.29.87.87,0,0,0-.35.68v3.14c0,.23,0,.41,0,.52a1.33,1.33,0,0,1-.15.4c-.15.26-.53.39-1.16.39a1.64,1.64,0,0,1-1-.26.89.89,0,0,1-.27-.64V18.26a3.57,3.57,0,0,1,0-.52,1.14,1.14,0,0,1,.13-.38c.14-.27.52-.41,1.16-.41s1,.12,1.12.35a.86.86,0,0,1,.17.49,2.06,2.06,0,0,1,.22-.25,2.53,2.53,0,0,1,.6-.41,1.85,1.85,0,0,1,.82-.25,3.34,3.34,0,0,1,.59,0A2.94,2.94,0,0,1,84.71,17Z"/><path class="cls-2" d="M93.52,17c.59.26.88.58.88.95a1.13,1.13,0,0,1-.12.51,1.8,1.8,0,0,0-.12.25l-3.92,8.76A4,4,0,0,1,90,28a.84.84,0,0,1-.26.28.73.73,0,0,1-.45.13,2.21,2.21,0,0,1-.79-.22c-.59-.26-.89-.57-.89-.93a20.54,20.54,0,0,1,1.44-3.42l-3-5a1.74,1.74,0,0,1-.29-.73c0-.32.26-.64.8-1a1.77,1.77,0,0,1,.8-.3.81.81,0,0,1,.46.12.78.78,0,0,1,.26.25c.06.08.33.55.82,1.39s1,1.62,1.42,2.35c.05-.16.32-.77.8-1.84s.75-1.65.79-1.72a1.23,1.23,0,0,1,.17-.25.64.64,0,0,1,.55-.25A2.11,2.11,0,0,1,93.52,17Z"/><path class="cls-2" d="M99.07,24.13a.63.63,0,0,1-.29-.57,2.5,2.5,0,0,1,.57-1.18.58.58,0,0,1,.53-.25,2.1,2.1,0,0,1,1,.37,2.35,2.35,0,0,0,1.14.36c.61,0,.91-.12.91-.36s-.33-.33-1-.42a4.88,4.88,0,0,1-1.87-.7,2,2,0,0,1-.72-.84,3.07,3.07,0,0,1-.28-1.37c0-1.58,1.08-2.36,3.24-2.36a5.27,5.27,0,0,1,2.19.5c.35.16.52.36.52.6a1.72,1.72,0,0,1-.33.88c-.22.35-.44.53-.67.53a2.13,2.13,0,0,1-.67-.23,2.44,2.44,0,0,0-1-.22c-.59,0-.88.11-.88.33s.34.49,1,.58a5.58,5.58,0,0,1,1.92.57,1.66,1.66,0,0,1,.72.72,2.58,2.58,0,0,1,.3,1.3,2.68,2.68,0,0,1-.3,1.32,1.84,1.84,0,0,1-.81.82,5.49,5.49,0,0,1-2.4.46A5.1,5.1,0,0,1,99.07,24.13Z"/><path class="cls-2" d="M113.91,20a1.81,1.81,0,0,1-.45,1.36,1.42,1.42,0,0,1-1,.45H108.9a.83.83,0,0,0,.5.7,2,2,0,0,0,1,.28,4.14,4.14,0,0,0,1.36-.18l.16-.06a1.49,1.49,0,0,1,.6-.16c.32,0,.59.22.82.67a1.67,1.67,0,0,1,.2.69c0,.89-1.07,1.33-3.19,1.33a4.91,4.91,0,0,1-2-.38,3.31,3.31,0,0,1-1.33-1,4.3,4.3,0,0,1-1-2.71,3.92,3.92,0,0,1,1.22-3,4.33,4.33,0,0,1,3-1.13,3.4,3.4,0,0,1,3,1.47A3.07,3.07,0,0,1,113.91,20Zm-3.15.44c.38,0,.57-.15.57-.47a.7.7,0,0,0-.26-.56,1.19,1.19,0,0,0-.75-.21,1.54,1.54,0,0,0-1,.4,1.11,1.11,0,0,0-.48.84Z"/><path class="cls-2" d="M120,17.79c.06-.56.45-.84,1.18-.84a3.11,3.11,0,0,1,.87.09.65.65,0,0,1,.4.32,1.23,1.23,0,0,1,.13.4c0,.11,0,.28,0,.51V23.5c0,.23,0,.41,0,.52a1.23,1.23,0,0,1-.13.4q-.21.39-1,.39a1.92,1.92,0,0,1-1.09-.21A.75.75,0,0,1,120,24a2.1,2.1,0,0,1-1.85.8,3.27,3.27,0,0,1-2.4-1.19,3.92,3.92,0,0,1,0-5.48A3.31,3.31,0,0,1,118.22,17a2.34,2.34,0,0,1,.93.18,1.91,1.91,0,0,1,.58.34A1.83,1.83,0,0,1,120,17.79Zm-2.72,3.11a1.23,1.23,0,0,0,.39.89,1.25,1.25,0,0,0,.94.4,1.2,1.2,0,0,0,.92-.41,1.29,1.29,0,0,0,.37-.88,1.37,1.37,0,0,0-.36-.91,1.15,1.15,0,0,0-.94-.42,1.19,1.19,0,0,0-.95.42A1.33,1.33,0,0,0,117.28,20.9Z"/><path class="cls-2" d="M129.15,17a1,1,0,0,1,.47.31,1,1,0,0,1,.19.7,2.32,2.32,0,0,1-.28,1,.9.9,0,0,1-.83.57,1.13,1.13,0,0,1-.51-.12,1.51,1.51,0,0,0-.65-.12,1.21,1.21,0,0,0-.76.29.87.87,0,0,0-.35.68v3.14c0,.23,0,.41,0,.52a1.28,1.28,0,0,1-.14.4q-.22.39-1.17.39a1.64,1.64,0,0,1-1-.26.89.89,0,0,1-.27-.64V18.26c0-.23,0-.41,0-.52a1.43,1.43,0,0,1,.13-.38c.14-.27.53-.41,1.16-.41s1,.12,1.13.35a.84.84,0,0,1,.16.49,2.06,2.06,0,0,1,.22-.25,2.53,2.53,0,0,1,.6-.41,1.85,1.85,0,0,1,.82-.25,3.34,3.34,0,0,1,.59,0A2.94,2.94,0,0,1,129.15,17Z"/><path class="cls-2" d="M132.65,20.9a1.2,1.2,0,0,0,.42,1,1.34,1.34,0,0,0,.89.35,1.57,1.57,0,0,0,.88-.27,1.31,1.31,0,0,1,.67-.28c.3,0,.66.26,1.09.79a1.31,1.31,0,0,1,.34.78c0,.38-.27.73-.82,1.06a3.55,3.55,0,0,1-2.09.6,4.3,4.3,0,0,1-2.68-1,3.6,3.6,0,0,1-1-1.28,4,4,0,0,1-.39-1.76,3.85,3.85,0,0,1,.39-1.75,3.56,3.56,0,0,1,1-1.27,4.18,4.18,0,0,1,2.65-1,4.38,4.38,0,0,1,1.9.47l.24.15.41.28a.86.86,0,0,1,.39.68,1.59,1.59,0,0,1-.31.86c-.36.55-.7.83-1,.83a1.74,1.74,0,0,1-.81-.33,1.09,1.09,0,0,0-.77-.26,1.46,1.46,0,0,0-.94.36A1.25,1.25,0,0,0,132.65,20.9Z"/><path class="cls-2" d="M142.19,17a3.16,3.16,0,0,1,2.49,1.14,4.11,4.11,0,0,1,1,2.78v2.63a3.27,3.27,0,0,1,0,.52,1.07,1.07,0,0,1-.14.4c-.13.26-.51.39-1.15.39s-1-.13-1.14-.39a1.33,1.33,0,0,1-.14-.41c0-.12,0-.3,0-.54V20.89a1.3,1.3,0,0,0-.34-1,1.2,1.2,0,0,0-.88-.34,1.42,1.42,0,0,0-.93.32,1.13,1.13,0,0,0-.47.72v2.9a3.57,3.57,0,0,1,0,.52,1.28,1.28,0,0,1-.14.4c-.13.26-.52.39-1.15.39s-1-.14-1.15-.41a1,1,0,0,1-.13-.39,3.49,3.49,0,0,1,0-.52V14.58a3.64,3.64,0,0,1,0-.52,1,1,0,0,1,.13-.38c.13-.27.52-.4,1.16-.4s1,.13,1.14.4a1.28,1.28,0,0,1,.14.4,3.41,3.41,0,0,1,0,.51V17.9A2.22,2.22,0,0,1,142.19,17Z"/></g></g></svg>