<svg xmlns="http://www.w3.org/2000/svg" xmlns:xlink="http://www.w3.org/1999/xlink" viewBox="0 0 158.26 40.24"><defs><style>.cls-1{fill:url(#linear-gradient);}.cls-2{fill:#fff;}.cls-3{fill:#fbb03b;}</style><linearGradient id="linear-gradient" y1="20.12" x2="158.26" y2="20.12" gradientUnits="userSpaceOnUse"><stop offset="0" stop-color="#f15a24"/><stop offset="1" stop-color="#fcee21"/></linearGradient></defs><g id="Layer_2" data-name="Layer 2"><g id="Layer_1-2" data-name="Layer 1"><rect class="cls-1" width="158.26" height="40.24" rx="20.12"/><circle class="cls-2" cx="20.12" cy="20.12" r="20.12"/><path class="cls-3" d="M26.81,8.85A7.38,7.38,0,0,0,15.6,18.37L8.82,25.15a1.2,1.2,0,0,0,0,1.68,1.16,1.16,0,0,0,.84.35,1.18,1.18,0,0,0,.85-.35l6.78-6.78a7.29,7.29,0,0,0,4.3,1.39A7.38,7.38,0,0,0,26.81,8.85ZM25.13,17.6a5,5,0,1,1,0-7.07A5,5,0,0,1,25.13,17.6Z"/><path class="cls-3" d="M29,30.62H8.47a1.19,1.19,0,1,1,0-2.38H29a1.19,1.19,0,0,1,0,2.38Z"/><path class="cls-3" d="M16.11,27.3a.65.65,0,0,1-.66-.66V23.82a.66.66,0,0,1,1.32,0v2.82A.66.66,0,0,1,16.11,27.3Z"/><path class="cls-3" d="M19,27.3a.66.66,0,0,1-.66-.66V23.82a.67.67,0,0,1,1.33,0v2.82A.66.66,0,0,1,19,27.3Z"/><path class="cls-3" d="M22,27.3a.66.66,0,0,1-.66-.66V23.82a.66.66,0,0,1,1.32,0v2.82A.65.65,0,0,1,22,27.3Z"/><path class="cls-3" d="M24.92,27.3a.65.65,0,0,1-.66-.66V23.82a.66.66,0,0,1,1.32,0v2.82A.66.66,0,0,1,24.92,27.3Z"/><path class="cls-3" d="M27.85,27.3a.66.66,0,0,1-.66-.66V23.82a.67.67,0,0,1,1.33,0v2.82A.66.66,0,0,1,27.85,27.3Z"/><path class="cls-2" d="M50.56,22.62h4.06a1.61,1.61,0,0,1,.72.12.55.55,0,0,1,.3.35,2.15,2.15,0,0,1,.08.63,2.17,2.17,0,0,1-.08.64.51.51,0,0,1-.25.33,1.69,1.69,0,0,1-.78.15H49.23q-1,0-1.23-.57a2.37,2.37,0,0,1-.09-.76V15.19c0-.23,0-.4,0-.51a1.28,1.28,0,0,1,.14-.4c.14-.27.53-.4,1.17-.4s1.11.18,1.24.55a2.94,2.94,0,0,1,.08.78Z"/><path class="cls-2" d="M59.15,15.5a.66.66,0,0,1-.4.3,2.56,2.56,0,0,1-.75.09,2.58,2.58,0,0,1-.76-.09.64.64,0,0,1-.4-.31,1.54,1.54,0,0,1-.13-.4c0-.11,0-.28,0-.51s0-.4,0-.52a1.43,1.43,0,0,1,.13-.38c.14-.27.53-.4,1.16-.4s1,.13,1.14.4a1.07,1.07,0,0,1,.14.4,3.41,3.41,0,0,1,0,.51,3.64,3.64,0,0,1,0,.52A1.27,1.27,0,0,1,59.15,15.5Zm-2.46,2.77c0-.23,0-.4,0-.51a1.54,1.54,0,0,1,.13-.4C57,17.1,57.37,17,58,17a1.58,1.58,0,0,1,1,.26.8.8,0,0,1,.27.64c0,.1,0,.24,0,.43v5.24a3.49,3.49,0,0,1,0,.51,1.07,1.07,0,0,1-.14.4c-.13.26-.51.39-1.15.39s-1-.14-1.15-.41a1.61,1.61,0,0,1-.13-.39c0-.11,0-.28,0-.52Z"/><path class="cls-2" d="M64.88,17a3.16,3.16,0,0,1,2.49,1.14,4.11,4.11,0,0,1,1,2.79v2.63a3.36,3.36,0,0,1,0,.52,1.1,1.1,0,0,1-.12.38c-.14.27-.53.4-1.17.4s-1.12-.18-1.23-.55a2.45,2.45,0,0,1-.09-.76V20.87a1.25,1.25,0,0,0-.35-.95,1.28,1.28,0,0,0-.94-.35,1.33,1.33,0,0,0-1,.36,1.28,1.28,0,0,0-.36.94v2.65a3.36,3.36,0,0,1,0,.52,1,1,0,0,1-.14.38c-.13.27-.51.4-1.15.4s-1-.13-1.15-.4a1.54,1.54,0,0,1-.13-.4c0-.11,0-.28,0-.51v-5.3c0-.22,0-.38,0-.5a1.19,1.19,0,0,1,.14-.38c.14-.25.53-.37,1.16-.37s1,.11,1.12.34a1.17,1.17,0,0,1,.15.61,1.53,1.53,0,0,1,.27-.3,2.55,2.55,0,0,1,.4-.31A1.94,1.94,0,0,1,64.88,17Z"/><path class="cls-2" d="M77.16,20a1.82,1.82,0,0,1-.46,1.37,1.43,1.43,0,0,1-1,.44H72.15a.81.81,0,0,0,.49.7,2,2,0,0,0,1,.28A4.1,4.1,0,0,0,75,22.56l.17-.06a1.45,1.45,0,0,1,.59-.16c.32,0,.6.22.83.67a1.64,1.64,0,0,1,.19.69c0,.89-1.06,1.33-3.18,1.33a4.87,4.87,0,0,1-2-.38,3.33,3.33,0,0,1-1.34-1,4.29,4.29,0,0,1-.94-2.71,3.88,3.88,0,0,1,1.22-3,4.3,4.3,0,0,1,3-1.13,3.39,3.39,0,0,1,3.05,1.47A3,3,0,0,1,77.16,20ZM74,20.4q.57,0,.57-.48a.67.67,0,0,0-.26-.56,1.16,1.16,0,0,0-.75-.21,1.54,1.54,0,0,0-1,.4,1.11,1.11,0,0,0-.48.85Z"/><path class="cls-2" d="M83.25,17.79c.06-.55.45-.83,1.18-.83a3,3,0,0,1,.86.09.62.62,0,0,1,.4.31,1,1,0,0,1,.13.4,3.13,3.13,0,0,1,0,.51v5.24a3.13,3.13,0,0,1,0,.51,1.19,1.19,0,0,1-.12.4c-.14.26-.48.39-1,.39a2,2,0,0,1-1.09-.21.81.81,0,0,1-.32-.59,2.09,2.09,0,0,1-1.85.8A3.29,3.29,0,0,1,79,23.63a3.94,3.94,0,0,1-1.1-2.75A3.88,3.88,0,0,1,79,18.14,3.33,3.33,0,0,1,81.47,17a2.32,2.32,0,0,1,.92.18,2,2,0,0,1,.59.34A1.83,1.83,0,0,1,83.25,17.79ZM80.52,20.9a1.23,1.23,0,0,0,.39.89,1.26,1.26,0,0,0,.94.4,1.18,1.18,0,0,0,.92-.4,1.28,1.28,0,0,0,.37-.89,1.4,1.4,0,0,0-.35-.91,1.17,1.17,0,0,0-.94-.42,1.2,1.2,0,0,0-1,.42A1.38,1.38,0,0,0,80.52,20.9Z"/><path class="cls-2" d="M92.4,17.05a1.06,1.06,0,0,1,.47.3,1.11,1.11,0,0,1,.18.7,2.29,2.29,0,0,1-.28,1,.89.89,0,0,1-.82.57,1.2,1.2,0,0,1-.52-.12,1.48,1.48,0,0,0-.65-.12,1.16,1.16,0,0,0-.75.29.84.84,0,0,0-.35.69v3.14a3.21,3.21,0,0,1,0,.51,1.07,1.07,0,0,1-.14.4q-.23.39-1.17.39a1.65,1.65,0,0,1-1-.26.89.89,0,0,1-.27-.64V18.26a3.36,3.36,0,0,1,0-.52,1.1,1.1,0,0,1,.12-.38c.14-.27.53-.4,1.17-.4s1,.11,1.12.34a.86.86,0,0,1,.17.49,3.1,3.1,0,0,1,.21-.25,2.62,2.62,0,0,1,.61-.4,1.76,1.76,0,0,1,.81-.26,3.27,3.27,0,0,1,.59,0A3.13,3.13,0,0,1,92.4,17.05Z"/><path class="cls-2" d="M97.72,24.13a.61.61,0,0,1-.28-.56A2.53,2.53,0,0,1,98,22.38a.58.58,0,0,1,.53-.25,2.13,2.13,0,0,1,1,.37,2.35,2.35,0,0,0,1.14.36c.6,0,.91-.12.91-.36s-.34-.33-1-.41a4.84,4.84,0,0,1-1.87-.71,2,2,0,0,1-.72-.84,3.07,3.07,0,0,1-.29-1.37c0-1.58,1.09-2.36,3.25-2.36a5.35,5.35,0,0,1,2.18.5c.35.16.53.36.53.6a1.78,1.78,0,0,1-.33.89c-.22.34-.45.52-.67.52a2.05,2.05,0,0,1-.67-.23,2.47,2.47,0,0,0-1-.22c-.59,0-.89.11-.89.33s.34.49,1,.58a5.47,5.47,0,0,1,1.91.57,1.66,1.66,0,0,1,.73.73,2.62,2.62,0,0,1,.29,1.29,2.8,2.8,0,0,1-.29,1.32,1.86,1.86,0,0,1-.82.82,5.43,5.43,0,0,1-2.4.46A5.12,5.12,0,0,1,97.72,24.13Z"/><path class="cls-2" d="M112.57,20a1.82,1.82,0,0,1-.46,1.37,1.43,1.43,0,0,1-1,.44h-3.54a.81.81,0,0,0,.49.7,2,2,0,0,0,1,.28,4.1,4.1,0,0,0,1.36-.18l.17-.06a1.45,1.45,0,0,1,.59-.16c.32,0,.6.22.83.67a1.64,1.64,0,0,1,.19.69c0,.89-1.06,1.33-3.18,1.33a4.87,4.87,0,0,1-2-.38,3.33,3.33,0,0,1-1.34-1,4.29,4.29,0,0,1-.94-2.71,3.92,3.92,0,0,1,1.22-3,4.3,4.3,0,0,1,3-1.13,3.39,3.39,0,0,1,3,1.47A3,3,0,0,1,112.57,20Zm-3.16.45q.57,0,.57-.48a.67.67,0,0,0-.26-.56,1.16,1.16,0,0,0-.75-.21,1.54,1.54,0,0,0-1,.4,1.11,1.11,0,0,0-.48.85Z"/><path class="cls-2" d="M118.66,17.79c.06-.55.45-.83,1.18-.83a3,3,0,0,1,.86.09.62.62,0,0,1,.4.31,1.28,1.28,0,0,1,.14.4c0,.11,0,.28,0,.51v5.24c0,.23,0,.4,0,.51a1.54,1.54,0,0,1-.13.4c-.14.26-.48.39-1,.39A2,2,0,0,1,119,24.6a.81.81,0,0,1-.32-.59,2.09,2.09,0,0,1-1.85.8,3.29,3.29,0,0,1-2.4-1.18,3.94,3.94,0,0,1-1.1-2.75,3.88,3.88,0,0,1,1.11-2.74A3.33,3.33,0,0,1,116.88,17a2.32,2.32,0,0,1,.92.18,2,2,0,0,1,.59.34A1.83,1.83,0,0,1,118.66,17.79Zm-2.73,3.11a1.23,1.23,0,0,0,.39.89,1.26,1.26,0,0,0,.94.4,1.18,1.18,0,0,0,.92-.4,1.28,1.28,0,0,0,.37-.89,1.4,1.4,0,0,0-.35-.91,1.17,1.17,0,0,0-.94-.42,1.2,1.2,0,0,0-1,.42A1.38,1.38,0,0,0,115.93,20.9Z"/><path class="cls-2" d="M127.81,17.05a1.06,1.06,0,0,1,.47.3,1.11,1.11,0,0,1,.18.7,2.29,2.29,0,0,1-.28,1,.89.89,0,0,1-.82.57,1.2,1.2,0,0,1-.52-.12,1.48,1.48,0,0,0-.65-.12,1.16,1.16,0,0,0-.75.29.84.84,0,0,0-.35.69v3.14a3.21,3.21,0,0,1,0,.51,1.07,1.07,0,0,1-.14.4q-.23.39-1.17.39a1.65,1.65,0,0,1-1-.26.89.89,0,0,1-.27-.64V18.26a3.36,3.36,0,0,1,0-.52,1.1,1.1,0,0,1,.12-.38c.14-.27.53-.4,1.17-.4s1,.11,1.12.34a.86.86,0,0,1,.17.49,3.1,3.1,0,0,1,.21-.25,2.62,2.62,0,0,1,.61-.4,1.76,1.76,0,0,1,.81-.26,3.27,3.27,0,0,1,.59,0A3.13,3.13,0,0,1,127.81,17.05Z"/><path class="cls-2" d="M131.31,20.9a1.2,1.2,0,0,0,.42,1,1.3,1.3,0,0,0,.88.35,1.6,1.6,0,0,0,.89-.27,1.25,1.25,0,0,1,.66-.28c.3,0,.67.27,1.09.79a1.33,1.33,0,0,1,.35.78c0,.38-.28.73-.82,1.06a3.56,3.56,0,0,1-2.1.6,4.27,4.27,0,0,1-2.67-1,3.62,3.62,0,0,1-1-1.28,4,4,0,0,1-.39-1.76,3.85,3.85,0,0,1,.39-1.75,3.58,3.58,0,0,1,1-1.27,4.2,4.2,0,0,1,2.64-1,4.13,4.13,0,0,1,1.11.15,3.9,3.9,0,0,1,.79.31l.24.15.42.28a.86.86,0,0,1,.39.68,1.61,1.61,0,0,1-.32.86c-.35.55-.7.83-1,.83a1.67,1.67,0,0,1-.8-.33,1.1,1.1,0,0,0-.78-.26,1.43,1.43,0,0,0-.93.36A1.22,1.22,0,0,0,131.31,20.9Z"/><path class="cls-2" d="M140.85,17a3.18,3.18,0,0,1,2.49,1.13,4.1,4.1,0,0,1,1,2.78v2.64c0,.22,0,.4,0,.51a1.28,1.28,0,0,1-.14.4c-.13.26-.52.39-1.15.39s-1-.13-1.14-.39a1.11,1.11,0,0,1-.14-.41,3.51,3.51,0,0,1,0-.53V20.89a1.3,1.3,0,0,0-.34-1,1.18,1.18,0,0,0-.87-.34,1.49,1.49,0,0,0-.94.32,1.14,1.14,0,0,0-.46.72v2.91a3.21,3.21,0,0,1,0,.51,1.07,1.07,0,0,1-.14.4c-.13.26-.51.39-1.15.39s-1-.14-1.15-.41a1.61,1.61,0,0,1-.13-.39c0-.11,0-.28,0-.52V14.58c0-.23,0-.4,0-.52a1.43,1.43,0,0,1,.13-.38c.14-.27.53-.4,1.17-.4s1,.13,1.13.4a1.07,1.07,0,0,1,.14.4,3.13,3.13,0,0,1,0,.51V17.9A2.2,2.2,0,0,1,140.85,17Z"/></g></g></svg>